# xmcd
#
# Track frame offsets: 
#        175
#        16150
#        30025
#        45250
#        63250
#        79900
#        96250
#        112750
#        132025
#        150100
#        163675
#        182725
#
# Disc length: 2595 seconds
#
# Revision: 0
# Processed by: cddbd v1.4PL0 Copyright (c) Steve Scherf et al.
# Submitted via: ExactAudioCopy v0.90b4
#
DISCID=760a210c
DTITLE=Working Blues Band - Mercy Mercy
DYEAR=1997
DGENRE=Blues
TTITLE0=Nobodies Business
TTITLE1=Well, Well, Well
TTITLE2=Mercy Mercy
TTITLE3=Blue Lines
TTITLE4=Lordy, Lordy, Lord
TTITLE5=Ev'rything's Gonna Be Allright
TTITLE6=One Million Times
TTITLE7=High and Low
TTITLE8=Big City Blues
TTITLE9=Taxidriver
TTITLE10=There's No Sun Up In The Sky
TTITLE11=What Is Blues?
EXTD=
EXTT0=
EXTT1=
EXTT2=
EXTT3=
EXTT4=
EXTT5=
EXTT6=
EXTT7=
EXTT8=
EXTT9=
EXTT10=
EXTT11=
PLAYORDER=
